<svg width="3067" height="165" fill="none" xmlns="http://www.w3.org/2000/svg"><path d="M285.476 52.569c11.572-10.55 23.274-18.461 36.406-3.836 11.962-6.473 26.134 27.092 37.836 5.514 13.262 9.59 25.484-5.035 39.006 11.268 13.782 14.865 26.654 17.262 39.656 13.906 12.872-7.912 26.134 4.076 39.656 10.789 25.614-10.31 51.619-5.035 76.972.959 36.796-30.928 74.502-15.105 107.657-15.105 33.286-6.713 63.71 16.304 87.244 5.754 23.274-10.549 41.476 6.234 50.838 5.994 33.805-.959 55.389-5.514 72.681-8.87 17.163-11.269 30.295-23.017 47.848-7.912 16.772-16.303 37.836-12.467 71.641 13.186 16.903-12.467 34.323-11.029 52.923 14.385 16.9-20.858 34.71-9.11 52.65-1.439 13.14 14.625 24.71-1.918 35.76-18.46 12.09 4.555 23.53-3.357 34.71-22.297 17.56-1.918 37.06-9.83 57.21-13.187 20.42-4.795 41.35-13.186 63.06 5.994 21.07 3.117 41.48 6.713 60.46 7.672 20.94.96 42.13-2.877 63.45-8.63 21.33-5.755 43.43-12.707 66.05-17.742 22.37-19.18 46.68 9.35 70.73-5.275 29.91-17.262 58.25 13.666 82.83 14.385 24.44-10.31 48.63 34.524 69.43 16.783 22.36 22.057 42.26-5.035 63.97 8.391 20.93-6.473 43.95 16.783 66.83-11.029 4.81.72 15.08-11.028 27.56-7.672 12.23 6.234 26.01 15.824 35.37-7.432 15.73 4.316 30.16-16.063 45.9-4.555 25.48-7.432 51.61-3.357 77.75 7.432 26.52 12.467 51.88 3.596 78.66 23.975 26.26 6.953 52.4 18.221 77.75 6.234 10.79 9.11 20.42-12.947 30.82-8.152 10.53 8.631 20.54 4.795 30.03-11.268 10.4 6.953 20.03-1.678 29.78-4.316 9.75-2.397 19.76-7.192 29.25-16.782 19.76-8.87 40.57 14.385 60.72-1.199 17.29 5.275 34.72 15.584 51.36 15.104 16.9-3.356 34.19 10.07 51.75 14.625 10.27 11.508 19.5.72 29.12 2.158 8.84-18.221 18.47-9.83 27.96-5.754 9.75 13.666 18.72 3.836 27.04-11.029 9.62 10.31 18.07-10.549 27.3-13.905 10.15 22.297 18.34-5.994 27.7-10.31 9.36-5.753 18.72-12.466 28.47-14.384 32.9-23.496 118.2 24.694 146.28 14.385 100.23 38.6 111.65 63.054 137 55.142 8.84 5.515 119.93 103.78 127 144.466 7.07 40.686 49.71 183.581 15.73 322.705-33.97 139.123-2798.229-190.258-2798.229-190.258 11.882-117.036-297.977-6.986-250-132.447C53.03 95.068 285.217 52.569 285.477 52.569Z" fill="#E6AD00"/></svg>