<svg width="40" height="30" fill="none" xmlns="http://www.w3.org/2000/svg"><path d="M39.602 7s-.391-2.758-1.594-3.969C36.484 1.437 34.78 1.43 34 1.336 28.406.93 20.008.93 20.008.93h-.016S11.594.93 6 1.336c-.781.094-2.484.101-4.008 1.695C.79 4.242.406 7 .406 7S0 10.242 0 13.477v3.03c0 3.235.398 6.477.398 6.477s.391 2.758 1.586 3.97c1.524 1.593 3.524 1.538 4.414 1.71 3.204.305 13.602.398 13.602.398s8.406-.015 14-.414c.781-.093 2.484-.101 4.008-1.695 1.203-1.21 1.594-3.969 1.594-3.969S40 19.75 40 16.508v-3.031C40 10.242 39.602 7 39.602 7ZM15.867 20.188V8.944l10.805 5.64-10.805 5.602Z" fill="#000"/></svg>