<svg width="41" height="40" fill="none" xmlns="http://www.w3.org/2000/svg"><path d="M5.239.086c-1.18.172-2.11.656-3.016 1.554-.54.532-.734.797-.992 1.329-.657 1.336-.602-.227-.602 17.03 0 17.259-.055 15.696.602 17.032.46.938 1.39 1.867 2.328 2.328 1.336.657-.227.602 17.031.602s15.695.055 17.031-.602c.532-.258.797-.46 1.336-.992.532-.539.735-.805.992-1.336.657-1.336.602.227.602-17.031s.055-15.695-.602-17.031C39.49 2.03 38.56 1.1 37.621.64c-1.343-.656.274-.601-16.758-.609C12.49.023 5.496.047 5.24.086Zm7.406 7.57c1.562.484 2.617 2.203 2.328 3.79-.39 2.148-2.547 3.398-4.586 2.671-.711-.258-1.484-.945-1.836-1.625a3.456 3.456 0 0 1 1.508-4.648c.742-.375 1.734-.446 2.586-.188Zm15.343 7.899c2.891.398 4.485 2.296 4.915 5.851.078.672.101 2.133.109 5.766v4.875l-.227.226-.226.227H28.09l-.25-.227-.258-.226-.039-4.797c-.039-4.617-.047-4.805-.203-5.274-.453-1.328-1.203-1.898-2.492-1.898-1.305 0-2.195.71-2.68 2.14l-.21.633-.04 4.594-.039 4.602-.258.226-.25.227H17.06l-.227-.227-.226-.226V16.25l.226-.25.227-.258 2.101-.023c1.985-.016 2.11-.008 2.352.14.336.203.406.422.406 1.227v.664l.313-.399c1.164-1.468 3.297-2.14 5.757-1.796Zm-14.234.273c.531.25.508-.195.508 8.313 0 6.648-.016 7.695-.117 7.89-.242.461-.274.469-2.516.469-1.422 0-2.11-.031-2.25-.094-.445-.203-.43.148-.43-8.305 0-5.351.024-7.835.086-7.937.04-.086.196-.227.329-.305.226-.14.406-.156 2.187-.156 1.61 0 1.992.023 2.203.125Z" fill="#000"/></svg>