<svg width="16" height="15" fill="none" xmlns="http://www.w3.org/2000/svg"><path d="M15.857 3.692a.812.812 0 0 0-.286-.263.774.774 0 0 0-.371-.096H4.266l-.923-2.308a1.649 1.649 0 0 0-.589-.746A1.55 1.55 0 0 0 1.866 0H0v1.667h1.866l3.795 9.487a.83.83 0 0 0 .295.373c.132.091.286.14.444.14h6.4a.804.804 0 0 0 .75-.54l2.4-6.667a.865.865 0 0 0-.093-.768ZM6.8 15c.663 0 1.2-.56 1.2-1.25s-.537-1.25-1.2-1.25c-.662 0-1.2.56-1.2 1.25S6.139 15 6.8 15Zm5.598 0c.663 0 1.2-.56 1.2-1.25s-.537-1.25-1.2-1.25c-.662 0-1.2.56-1.2 1.25s.537 1.25 1.2 1.25Z" fill="#000"/></svg>