<svg width="27" height="21" fill="none" xmlns="http://www.w3.org/2000/svg"><path d="M27 16.32a4.84 4.84 0 0 1-.324 1.78 4.709 4.709 0 0 1-.974 1.492 4.626 4.626 0 0 1-1.54 1.035 4.998 4.998 0 0 1-1.947.373c-.811 0-1.527-.152-2.15-.456a4.06 4.06 0 0 1-1.58-1.284 5.29 5.29 0 0 1-.974-1.864 7.59 7.59 0 0 1-.324-2.278c0-1.242.175-2.54.527-3.893a20.602 20.602 0 0 1 1.5-3.935 21.772 21.772 0 0 1 2.433-3.852A22.68 22.68 0 0 1 24.891 0l1.217 1.201c.351.332.527.718.527 1.16 0 .359-.19.732-.568 1.118-.27.304-.608.718-1.013 1.243a15.835 15.835 0 0 0-1.298 1.74 15.15 15.15 0 0 0-1.176 2.195 10.14 10.14 0 0 0-.811 2.568h.527c.703 0 1.338.124 1.906.373a4.743 4.743 0 0 1 1.5 1.035c.406.47.73 1.008.974 1.616a6.39 6.39 0 0 1 .324 2.07Zm-17.187 0a4.84 4.84 0 0 1-.324 1.78 4.709 4.709 0 0 1-.973 1.492 4.625 4.625 0 0 1-1.541 1.035A4.999 4.999 0 0 1 5.028 21c-.81 0-1.527-.152-2.149-.456a4.06 4.06 0 0 1-1.581-1.284 5.291 5.291 0 0 1-.974-1.864A7.591 7.591 0 0 1 0 15.118c0-1.242.176-2.54.527-3.893a20.597 20.597 0 0 1 1.5-3.935 21.778 21.778 0 0 1 2.434-3.852A22.678 22.678 0 0 1 7.705 0L8.92 1.201c.352.332.527.718.527 1.16 0 .359-.189.732-.567 1.118a24.1 24.1 0 0 0-1.014 1.243 15.835 15.835 0 0 0-1.298 1.74 15.142 15.142 0 0 0-1.176 2.195 10.1 10.1 0 0 0-.81 2.568h.526c.703 0 1.339.124 1.906.373a4.742 4.742 0 0 1 1.5 1.035c.406.47.73 1.008.974 1.616a6.39 6.39 0 0 1 .324 2.07Z" opacity=".1" fill="#000"/></svg>