<svg width="32" height="32" viewBox="0 0 32 32" fill="none" xmlns="http://www.w3.org/2000/svg">
<path fill-rule="evenodd" clip-rule="evenodd" d="M16.0664 19.6003C16.6187 19.6003 17.0664 20.048 17.0664 20.6003V20.7336C17.0664 20.9995 16.9605 21.2544 16.7721 21.4421C16.5837 21.6297 16.3284 21.7346 16.0625 21.7336L15.9297 21.7331C15.3789 21.7309 14.9336 21.2838 14.9336 20.7331V20.6003C14.9336 20.048 15.3813 19.6003 15.9336 19.6003H16.0664ZM16 10.2669C16.5523 10.2669 17 10.7146 17 11.2669V16.6003C17 17.1525 16.5523 17.6003 16 17.6003C15.4477 17.6003 15 17.1525 15 16.6003V11.2669C15 10.7146 15.4477 10.2669 16 10.2669ZM6 16C6 21.5228 10.4772 26 16 26C21.5228 26 26 21.5228 26 16C26 10.4772 21.5228 6 16 6C10.4772 6 6 10.4772 6 16ZM16 28C9.37258 28 4 22.6274 4 16C4 9.37258 9.37258 4 16 4C22.6274 4 28 9.37258 28 16C28 22.6274 22.6274 28 16 28Z" fill="white"/>
</svg>
