<svg width="20" height="16" viewBox="0 0 20 16" fill="none" xmlns="http://www.w3.org/2000/svg">
<path d="M18 4.19727C18 3.79684 17.9983 3.49478 17.9902 3.25293C16.9849 3.99886 15.7656 4.91748 14.7305 5.70411C14.1049 6.17955 13.5474 6.60561 13.1465 6.91211C12.9463 7.06515 12.785 7.18829 12.6738 7.27344C12.6183 7.31602 12.575 7.34975 12.5459 7.37207C12.5314 7.38323 12.5201 7.39177 12.5127 7.39747C12.509 7.40027 12.5058 7.40191 12.5039 7.40332L12.502 7.40528H12.501C12.4953 7.40964 12.4902 7.41471 12.4844 7.41895C11.9512 7.80994 11.4856 8.1668 10.9736 8.3545L10.751 8.42481C10.3201 8.53617 9.8702 8.54936 9.43458 8.46583L9.24805 8.42481C8.7959 8.30783 8.3909 8.05182 7.95997 7.74317L7.51856 7.41993C7.51388 7.4165 7.5095 7.41269 7.50489 7.40918V7.41016L2.00879 3.25879C2.0009 3.50036 2 3.80144 2 4.2002V11.7998C2 12.3764 2.00127 12.749 2.02442 13.0322C2.04661 13.3037 2.08418 13.4047 2.10938 13.4541L2.19141 13.5889C2.28379 13.7159 2.40538 13.82 2.5459 13.8916L2.59375 13.9121C2.65544 13.9343 2.76293 13.9599 2.9668 13.9766C3.24973 13.9997 3.62182 14 4.19727 14H15.8027C16.3779 14 16.7496 13.9996 17.0322 13.9766C17.3026 13.9545 17.4037 13.9167 17.4531 13.8916L17.5879 13.8086C17.7151 13.7161 17.8199 13.5948 17.8916 13.4541L17.9121 13.4053C17.9343 13.3435 17.96 13.2362 17.9766 13.0332C17.9997 12.7505 18 12.3791 18 11.8037V4.19727ZM3.66114 2.00196L8.70118 5.80762L9.16114 6.14063C9.52776 6.40033 9.64373 6.46104 9.74903 6.48829L9.87403 6.51172C9.99956 6.5276 10.1279 6.52013 10.251 6.48829L10.3691 6.44336C10.5088 6.3751 10.7393 6.21742 11.3008 5.80567C11.3079 5.80022 11.3177 5.79289 11.3291 5.78418C11.3584 5.76172 11.4016 5.72898 11.457 5.68653C11.5687 5.60102 11.7306 5.47691 11.9316 5.32325C12.3337 5.01588 12.893 4.58919 13.5205 4.11231C14.398 3.44548 15.4135 2.67965 16.3213 2.00196L15.7998 2H4.2002L3.66114 2.00196ZM20 11.8037C20 12.3461 20.0011 12.8132 19.9697 13.1963C19.9415 13.5418 19.8834 13.8859 19.7402 14.2197L19.6729 14.3623C19.4209 14.8566 19.0372 15.2696 18.5674 15.5576L18.3613 15.6729C17.9832 15.8655 17.5902 15.9374 17.1953 15.9697C16.8123 16.001 16.345 16 15.8027 16H4.19727C3.6548 16 3.18701 16.0011 2.80372 15.9697C2.45828 15.9415 2.11417 15.8834 1.78028 15.7402L1.6377 15.6729C1.1433 15.4209 0.730277 15.0379 0.442387 14.5684L0.327153 14.3623C0.134392 13.984 0.062591 13.5906 0.0302779 13.1953C-0.00107149 12.8117 4.43902e-06 12.3434 4.43902e-06 11.7998V4.2002C4.43448e-06 3.65664 -0.00106707 3.18845 0.0302779 2.80469C0.0625816 2.40941 0.134368 2.01605 0.327153 1.6377L0.442387 1.43165C0.730568 0.961581 1.14367 0.578899 1.6377 0.327153L1.78028 0.25977C2.1144 0.116558 2.45886 0.0585409 2.80469 0.0302778C3.18845 -0.00106712 3.65664 4.38421e-06 4.2002 4.38875e-06H15.7998L16.5576 0.00391064C16.7904 0.00763542 17.0036 0.0146031 17.1953 0.0302778C17.5905 0.062609 17.9832 0.134467 18.3613 0.327153L18.5674 0.442387C19.0369 0.73006 19.4207 1.14277 19.6729 1.6377L19.7402 1.78028C19.8834 2.11417 19.9415 2.45828 19.9697 2.80372C20.0011 3.18701 20 3.6548 20 4.19727V11.8037Z" fill="black"/>
</svg>
