<svg width="18" height="18" viewBox="0 0 18 18" fill="none" xmlns="http://www.w3.org/2000/svg">
<path d="M12.464 6.73156C12.7585 6.49125 13.1933 6.50872 13.4679 6.78332C13.7424 7.05794 13.7599 7.49268 13.5196 7.78723L13.4679 7.84387L9.53036 11.7804C9.25577 12.0549 8.82101 12.0724 8.52645 11.8321L8.46981 11.7804L4.53231 7.84387L4.48055 7.78723C4.24027 7.49268 4.25777 7.05794 4.53231 6.78332C4.8069 6.50872 5.24163 6.49125 5.53622 6.73156L5.59286 6.78332L9.00008 10.1896L12.4073 6.78332L12.464 6.73156Z" fill="white"/>
<path d="M8.25 11.2471V0.75C8.25 0.335786 8.58579 0 9 0C9.41421 0 9.75 0.335786 9.75 0.75V11.2471C9.75 11.6613 9.41421 11.9971 9 11.9971C8.58579 11.9971 8.25 11.6613 8.25 11.2471Z" fill="white"/>
<path d="M0 16.5V11.25C0 10.8358 0.335786 10.5 0.75 10.5C1.16421 10.5 1.5 10.8358 1.5 11.25V16.5H16.5V11.25C16.5 10.8358 16.8358 10.5 17.25 10.5C17.6642 10.5 18 10.8358 18 11.25V16.5C18 16.8481 17.8792 17.1841 17.6602 17.4512L17.5605 17.5605C17.2792 17.842 16.8976 18 16.5 18H1.5C1.1518 18 0.815853 17.8791 0.548828 17.6602L0.439453 17.5605C0.158075 17.2792 0 16.8977 0 16.5Z" fill="white"/>
</svg>
