<svg width="166" height="144" viewBox="0 0 166 144" fill="none" xmlns="http://www.w3.org/2000/svg">
<path fill-rule="evenodd" clip-rule="evenodd" d="M143.57 14.3886C136.228 81.8753 85.8311 128.527 17.902 119.738C15.6405 119.446 13.5697 121.041 13.2677 123.28C12.9788 125.551 14.5752 127.625 16.8367 127.918C89.6599 137.368 143.902 87.6083 151.782 15.2931C152.032 13.0377 150.387 10.983 148.119 10.7305C145.865 10.5105 143.82 12.1331 143.57 14.3886Z" fill="#2E2E2E"/>
<path d="M54.7968 77.1195C60.9523 74.6249 63.9201 67.6126 61.4254 61.4572C58.9308 55.3017 51.9185 52.3342 45.763 54.8288C39.6076 57.3234 36.6399 64.3356 39.1346 70.491C41.6292 76.6465 48.6413 79.6141 54.7968 77.1195Z" fill="#2E2E2E"/>
<path d="M96.1319 46.5646C102.167 44.1187 105.077 37.2436 102.631 31.2084C100.185 25.1733 93.3098 22.2637 87.2747 24.7096C81.2395 27.1554 78.3299 34.0306 80.7758 40.0657C83.2216 46.1008 90.0968 49.0105 96.1319 46.5646Z" fill="#2E2E2E"/>
</svg>
