<svg width="22" height="319" viewBox="0 0 22 319" fill="none" xmlns="http://www.w3.org/2000/svg">
<path d="M8 161C8 160.448 8.44772 160 9 160C9.55228 160 10 160.448 10 161V318C10 318.552 9.55228 319 9 319C8.44772 319 8 318.552 8 318V161Z" fill="url(#paint0_linear_2007_1793)"/>
<path d="M14.2193 120.97C14.36 120.83 14.5506 120.751 14.7493 120.751C14.9481 120.751 15.1387 120.83 15.2793 120.97L21.7793 127.47C21.9198 127.611 21.9987 127.801 21.9987 128C21.9987 128.199 21.9198 128.389 21.7793 128.53L15.2793 135.03C15.1877 135.129 15.0711 135.201 14.9418 135.239C14.8126 135.277 14.6755 135.279 14.5449 135.246C14.4144 135.213 14.2953 135.145 14.2002 135.049C14.105 134.954 14.0374 134.835 14.0043 134.704C13.9709 134.574 13.9733 134.437 14.0111 134.308C14.0489 134.178 14.1209 134.062 14.2193 133.97L20.1893 128L14.2193 122.03C14.0789 121.889 14 121.699 14 121.5C14 121.301 14.0789 121.111 14.2193 120.97ZM7.77934 120.97C7.91979 121.111 7.99868 121.301 7.99868 121.5C7.99868 121.699 7.91979 121.889 7.77934 122.03L1.80934 128L7.77934 133.97C7.87806 134.062 7.95024 134.178 7.98825 134.308C8.02626 134.437 8.02871 134.574 7.99534 134.704C7.96197 134.835 7.89401 134.954 7.79862 135.049C7.70323 135.144 7.58395 135.212 7.45334 135.245C7.32296 135.278 7.18599 135.276 7.05683 135.238C6.92766 135.2 6.81108 135.129 6.71934 135.03L0.21934 128.53C0.0788896 128.389 0 128.199 0 128C0 127.801 0.0788896 127.611 0.21934 127.47L6.71934 120.97C6.85997 120.83 7.05059 120.751 7.24934 120.751C7.44809 120.751 7.63871 120.83 7.77934 120.97Z" fill="#E6EDF3"/>
<path d="M10 19C10 18.4477 10.4477 18 11 18C11.5523 18 12 18.4477 12 19V99C12 99.5523 11.5523 100 11 100C10.4477 100 10 99.5523 10 99V19Z" fill="url(#paint1_linear_2007_1793)"/>
<path d="M11 1C13.7614 1 16 3.23858 16 6C16 8.76142 13.7614 11 11 11C8.23858 11 6 8.76142 6 6C6 3.23858 8.23858 1 11 1Z" stroke="white" stroke-opacity="0.3" stroke-width="2"/>
<defs>
<linearGradient id="paint0_linear_2007_1793" x1="9.00074" y1="160" x2="9.00074" y2="319.008" gradientUnits="userSpaceOnUse">
<stop stop-color="#F88A36"/>
<stop offset="1" stop-color="#FD2020"/>
</linearGradient>
<linearGradient id="paint1_linear_2007_1793" x1="11.0007" y1="18" x2="11.0007" y2="100.004" gradientUnits="userSpaceOnUse">
<stop stop-color="#F88A36"/>
<stop offset="1" stop-color="#FD2020"/>
</linearGradient>
</defs>
</svg>
