<svg width="287" height="198" viewBox="0 0 287 198" fill="none" xmlns="http://www.w3.org/2000/svg">
<path d="M169.046 98.9998C169.046 106.429 171.114 113.725 175.04 120.061C179.289 126.919 185.514 132.333 192.896 135.591C200.278 138.848 208.474 139.798 216.405 138.315C224.337 136.832 231.635 132.986 237.341 127.282L272 161.932C259.303 174.626 243.064 183.184 225.414 186.483C207.764 189.783 189.529 187.669 173.103 180.421C156.676 173.172 142.826 161.126 133.371 145.866C124.635 131.766 120.028 115.531 120.028 98.9998H120.026C120.026 93.7472 118.992 88.5459 116.981 83.6931C114.971 78.8403 112.024 74.4307 108.309 70.7166C104.593 67.0024 100.182 64.0567 95.3281 62.0466C90.4742 60.0366 85.2715 59.0017 80.0176 59.0017V58.9998H51.0107V98.9998H10V9.99976H81.0186L81.0176 10.0056C92.3681 10.133 103.593 12.429 114.086 16.7742C124.887 21.2468 134.7 27.8028 142.967 36.0671C151.233 44.3316 157.791 54.1432 162.265 64.9412C166.738 75.7391 169.041 87.3122 169.041 98.9998H169.046Z" fill="url(#paint0_linear_2025_934)"/>
<g filter="url(#filter0_dd_2025_934)">
<path fill-rule="evenodd" clip-rule="evenodd" d="M168.521 99.0001C168.521 110.688 166.224 122.261 161.761 133.059C157.297 143.857 150.755 153.668 142.507 161.933C134.259 170.197 124.467 176.753 113.69 181.226C102.991 185.666 91.5292 187.965 79.9502 187.998V188H10V139.001H79.6992V138.998C84.9413 138.998 90.1325 137.963 94.9756 135.953C99.8185 133.943 104.219 130.997 107.926 127.283C111.632 123.569 114.573 119.16 116.579 114.307C118.46 109.757 119.485 104.902 119.605 99.9845L119.618 99.0001H119.869C119.869 97.6389 119.9 96.2755 119.963 94.9113C120.786 76.9793 127.001 59.7153 137.793 45.3868C148.585 31.0585 163.449 20.335 180.434 14.6242C197.418 8.91348 215.729 8.48178 232.962 13.3868C250.195 18.2921 265.545 28.3049 276.997 42.1095L239.388 73.4337C234.241 67.23 227.343 62.73 219.599 60.5255C211.854 58.3212 203.625 58.5149 195.992 61.0812C188.359 63.6476 181.679 68.4673 176.829 74.9064C171.979 81.3455 169.186 89.1038 168.816 97.1622C168.788 97.7753 168.775 98.3884 168.775 99.0001H168.521Z" fill="url(#paint1_linear_2025_934)"/>
</g>
<rect x="10" y="98.9998" width="41" height="41" fill="url(#paint2_linear_2025_934)"/>
<defs>
<filter id="filter0_dd_2025_934" x="0" y="0" width="286.997" height="198" filterUnits="userSpaceOnUse" color-interpolation-filters="sRGB">
<feFlood flood-opacity="0" result="BackgroundImageFix"/>
<feColorMatrix in="SourceAlpha" type="matrix" values="0 0 0 0 0 0 0 0 0 0 0 0 0 0 0 0 0 0 127 0" result="hardAlpha"/>
<feOffset dx="4" dy="4"/>
<feGaussianBlur stdDeviation="3"/>
<feComposite in2="hardAlpha" operator="out"/>
<feColorMatrix type="matrix" values="0 0 0 0 0.605769 0 0 0 0 0.0271817 0 0 0 0 0.0271817 0 0 0 0.25 0"/>
<feBlend mode="normal" in2="BackgroundImageFix" result="effect1_dropShadow_2025_934"/>
<feColorMatrix in="SourceAlpha" type="matrix" values="0 0 0 0 0 0 0 0 0 0 0 0 0 0 0 0 0 0 127 0" result="hardAlpha"/>
<feOffset dx="-4" dy="-4"/>
<feGaussianBlur stdDeviation="3"/>
<feComposite in2="hardAlpha" operator="out"/>
<feColorMatrix type="matrix" values="0 0 0 0 0.603922 0 0 0 0 0.027451 0 0 0 0 0.027451 0 0 0 0.25 0"/>
<feBlend mode="normal" in2="effect1_dropShadow_2025_934" result="effect2_dropShadow_2025_934"/>
<feBlend mode="normal" in="SourceGraphic" in2="effect2_dropShadow_2025_934" result="shape"/>
</filter>
<linearGradient id="paint0_linear_2025_934" x1="78.6964" y1="-56.0325" x2="79" y2="105.5" gradientUnits="userSpaceOnUse">
<stop stop-color="#F88A36"/>
<stop offset="1" stop-color="#FD2020"/>
</linearGradient>
<linearGradient id="paint1_linear_2025_934" x1="40" y1="89" x2="40" y2="146" gradientUnits="userSpaceOnUse">
<stop stop-color="#FA572B"/>
<stop offset="1" stop-color="#FD2020"/>
</linearGradient>
<linearGradient id="paint2_linear_2025_934" x1="21.5" y1="140" x2="22" y2="52.4998" gradientUnits="userSpaceOnUse">
<stop stop-color="#FD2020"/>
<stop offset="1" stop-color="#FD2020"/>
</linearGradient>
</defs>
</svg>
